<?xml version="1.0" encoding="UTF-8"?>
<svg xmlns="http://www.w3.org/2000/svg" xmlns:xlink="http://www.w3.org/1999/xlink" width="150pt" height="150pt" viewBox="0 0 150 150" version="1.1">
<g id="surface1">
<path style=" stroke:none;fill-rule:nonzero;fill:rgb(0%,0%,0%);fill-opacity:1;" d="M 148.484375 69.871094 C 148.484375 69.871094 148.484375 74.671875 148.484375 75.839844 C 148.484375 86.21875 148.484375 95.460938 148.484375 95.460938 C 148.484375 97.679688 146.746094 99.480469 144.601562 99.480469 L 138.675781 99.480469 C 138.675781 91.351562 132.089844 84.765625 123.976562 84.765625 C 115.859375 84.765625 109.273438 91.351562 109.273438 99.480469 L 43.171875 99.480469 C 43.171875 91.351562 36.585938 84.765625 28.453125 84.765625 C 20.339844 84.765625 13.753906 91.351562 13.753906 99.480469 L 5.386719 99.480469 C 3.238281 99.480469 1.5 97.679688 1.5 95.460938 L 1.5 47.175781 C 1.5 43.183594 4.078125 40.695312 7.828125 40.695312 C 7.828125 40.695312 124.289062 40.695312 128.984375 40.695312 C 133.679688 40.695312 143.113281 46.90625 146.804688 55.320312 C 148.726562 59.820312 148.484375 69.871094 148.484375 69.871094 Z M 26.011719 48.058594 L 12.78125 48.058594 C 10.621094 48.058594 8.863281 49.816406 8.863281 51.976562 L 8.863281 63.71875 C 8.863281 65.878906 10.621094 67.636719 12.78125 67.636719 L 26.011719 67.636719 Z M 48.074219 48.058594 L 30.914062 48.058594 L 30.914062 67.636719 L 48.074219 67.636719 Z M 70.066406 48.058594 L 52.980469 48.058594 L 52.980469 67.636719 L 70.066406 67.636719 Z M 92.101562 48.058594 L 75.03125 48.058594 L 75.03125 67.636719 L 92.101562 67.636719 Z M 114.164062 48.058594 L 97.003906 48.058594 L 97.003906 67.636719 L 114.164062 67.636719 Z M 114.164062 76.859375 C 114.164062 75.855469 113.070312 75.03125 111.71875 75.03125 C 110.371094 75.03125 109.273438 75.839844 109.273438 76.859375 L 109.273438 80.503906 C 109.273438 81.511719 110.371094 82.335938 111.71875 82.335938 C 113.070312 82.335938 114.164062 81.523438 114.164062 80.503906 Z M 140.175781 59.519531 C 138.601562 52.816406 129.929688 48.058594 127.53125 48.058594 C 121.648438 48.058594 119.085938 48.058594 119.085938 48.058594 L 119.085938 67.636719 L 141 67.648438 C 140.984375 67.648438 141.433594 64.90625 140.175781 59.519531 Z M 28.453125 89.671875 C 33.871094 89.671875 38.265625 94.066406 38.265625 99.480469 C 38.265625 104.894531 33.871094 109.289062 28.453125 109.289062 C 23.039062 109.289062 18.644531 104.894531 18.644531 99.480469 C 18.660156 94.066406 23.039062 89.671875 28.453125 89.671875 Z M 123.976562 89.671875 C 129.390625 89.671875 133.785156 94.066406 133.785156 99.480469 C 133.785156 104.894531 129.390625 109.289062 123.976562 109.289062 C 118.558594 109.289062 114.164062 104.894531 114.164062 99.480469 C 114.179688 94.066406 118.558594 89.671875 123.976562 89.671875 Z M 123.976562 89.671875 "/>
</g>
</svg>
